<?xml version="1.0" encoding="UTF-8"?>
<svg id="Ebene_1" xmlns="http://www.w3.org/2000/svg" version="1.1" viewBox="0 0 250 250">
  <!-- Generator: Adobe Illustrator 29.5.1, SVG Export Plug-In . SVG Version: 2.1.0 Build 141)  -->
  <defs>
    <style>
      .st0 {
        fill: #f7ff00;
      }

      .st1 {
        fill: #f0f0f0;
      }

      .st2 {
        fill: #2e2e2e;
      }
    </style>
  </defs>
  <path class="st1" d="M91.13,158.28l-4.82,21.02-5.35-5.49-.65-.21-.65.26-39.63,35.68c-.32.37-.51.67-.58,1.17-.4,2.94.3,6.64.24,9.63l-.67.12v.66s.67.12.67.12l-.02,4.53-6.35,5.53c-.45.28-.8.08-.87-.44l-.44-13.9c-.38-.1-.44.16-.66.33-.62.48-2.81,2.25-3.19,2.72-.52.64-.34,3.71-.32,4.74.01.62.22,1.16.24,1.73.08,3.12.09,6.26.16,9.38l-5.88,5.09-1.25-.38-.98-17.19c-5.24-1.73-10.82-2.36-16.19-3.62-.97-.53-1.01-.94-.39-1.8.59-.82,3.27-3.23,4.16-3.94.33-.27,1.07-.92,1.44-.98l14.05,2.56c.75,0,3.6-2.91,4.22-3.66l-13.77-2.65c-.56-.7,1.47-1.82,1.95-2.28.88-.83,3.74-3.88,4.73-3.99l14.01,2.11,1.07-.42,38.86-34.92c.79-1.05.91-1.85.1-2.94s-3.82-3.21-5.07-4.33c-.14-.13-.42.01-.28-.5l22.11-3.72ZM63.77,182.58h-.87s0,.32,0,.32l.33.33.55-.22v-.44ZM57.64,192.86l-.03-.74-.52-.35-.33.33v.54s.87.22.87.22ZM37.5,204.03h-.44v.65h.44v-.65ZM41.44,205.12c.14-.16-.1-.87-.33-.87-.66,0-.04,1.3.33.87ZM26.77,206.88c-.25-.38-1.66.07-1.31.87.56.21,1.74-.22,1.31-.87ZM30.49,208.19c-.42-.42-1.35.7-.54.87.46.1.7-.71.54-.87ZM32.46,209.72c-.35-.35-1,.31-.65.65s1-.31.65-.65ZM34.65,211.7c-.03.46-.08.82.33,1.09.81-.58.67-1.15-.33-1.09ZM37.5,214.1c-.42-.42-1.35.7-.54.87.46.1.7-.71.54-.87ZM35.74,215.2h-.44v.44h.44v-.44ZM12.32,217.38c-.18-.64-.71-.19-1.17-.21-.6.28.36,1.23.73.87.05-.05-.17-.78.44-.66ZM35.74,217.17l-.44.11c.13.67.16,1.84,1.1,1.86.23-.91-.42-1.23-.66-1.97ZM20.42,219.14c.31-1.78-1.55-1.8-.85-.03l.85.03ZM5.53,218.26l-.87-.22c-.05.4-.01.64.33.87l.55-.65ZM9.03,218.04c-.5-.08-.92.07-.87.65h.87s0-.65,0-.65ZM33.12,219.14c.95-.11,1.18-.97,0-.87v.87ZM34.87,219.79c.83-.02.77-.66,0-.65v.65ZM9.69,219.58h-.44v.44h.44v-.44ZM26.33,223.52c1.17.1,1.16-.98,0-.87v.87ZM35.96,222.64h-.44v.44h.44v-.44ZM22.39,226.14l-.87.33.33.76h.32s.22-1.09.22-1.09ZM24.36,230.74h-.65v.44h.65v-.44Z"/>
  <path class="st1" d="M222.71,38.52l14.01,2.41c.21.27-.96,1.31-1.2,1.54-1.01.96-4.27,4.03-5.25,4.61-.21.12-.36.26-.63.19l-13.42-2.16-.82.23c-6.86,5.91-13.55,12.02-20.28,18.04-6.03,5.4-12.31,10.64-18.19,16.19-.41.39-1.87,1.78-2.06,2.1-.34.57-.51,1.08-.22,1.74.37.85,3.91,3.47,4.82,4.38.19.19.74.55.33.78l-21.9,4.26,5.04-21.89c.36-.27,5.05,6.24,6.11,6.47.21.05.36-.02.53-.14,10.42-9.59,21.24-18.76,31.68-28.33,2.66-2.44,5.07-5.06,7.75-7.46.35-.31,1.27-.55,1.55-1.19l.16-15.82,5.82-5.4,1.58-.45.44,14.45,3.83-3.05-.28-15.18c.57-.72,1.25-1.39,1.92-2.02.62-.58,2.83-2.64,3.38-2.96.48-.28.92-.32,1.44-.1l.38.5,1.03,17.58c.83.48,1.79.6,2.71.8,1.79.38,13.35,1.89,13.73,2.47s.03,1.52-.55,1.87l-5.21,4.23-13.97-2.35-4.25,3.7ZM227.09,14.65l-.1-.88-.77-.21v1.09s.87,0,.87,0ZM226.87,20.35l.22-.55-.32-.32-.55.55v.32s.65,0,.65,0ZM227.31,22.1c-1.03-.25-1.84.87-.75,1.31.35.14,1.01-.95.75-1.31ZM214.94,24.51c-.43,0-.39,1.01.22.87s-.05-.87-.22-.87ZM217.24,25.17c-.82-.29-.93-.15-.65.65h.65s0-.65,0-.65ZM229.44,30.26c-.21-.23-1.06-.66-1.23-.14-.33,1.04.65.86.41,1.83.46-.27.38-.83,1.09-.66.02-.33-.04-.79-.27-1.04ZM237.16,29.98c-.26,1.21,1.04,1.63,1.09.33l-1.09-.33ZM234.53,30.2h-.88s0,.87,0,.87l.66-.1.21-.77ZM213.49,31.76s-.61-.25-.71-.25c-.3.4-1.13.86-.14.88l-.44.65.66-.14v-.73c.54.39.97.13.63-.41ZM230.59,31.51h-.44v.65h.44v-.65ZM244.39,32.17l-1.53-.22c-.17.55.53,1.98,1.08,1.52l.45-1.3ZM240.9,34.11c-.05-.09.61-1.92-.35-1.72-.4.08-.41,1.25-.33,1.6.03.12.82.46.65,1.03,1.51-.41.09-.79.02-.91ZM237.38,33.27h-1.09c-.2,1.59,1.43.31,1.09,0ZM215.23,35.49c-.63-.41-.98-.57-1.71-.25l.57,1.33c.49-.08,1.51-.47,1.14-1.08ZM222.27,38.52l-.1-.88-.76-.21-.23.87,1.09.22ZM228.97,41.6c-.81.25-.06,1.31.42,1.28s.93-1.7-.42-1.28ZM211.77,42.89c.64.44,1.32-.92.52-1.07s-.85.85-.52,1.07ZM224.96,43.92c-.06-.02-.08-.22-.11-.31l-.57.19-.04.69,1.2.59.34-1.09c-.3.03-.53.03-.82-.07ZM232.34,44.65l.22-.75-.54-.34-.33.54.65.55ZM205.42,48.15c.06-.41,0-.76-.43-.87v.87s.43,0,.43,0ZM206.95,49.69h-.44v.65h.44v-.65ZM205.85,50.34h-.65c-.05.4-.01.64.33.87h.32s0-.87,0-.87ZM203.85,52.57l-.84-.03.22,1.53.22-.66.65.22-.25-1.06ZM199.29,55.59c.9-.02.83-.89,0-.87v.87ZM199.07,57.13c-.34-.04-1.68-.11-1.53.54.32.37.81.61,1.3.54l.23-1.09ZM186.48,67.42c-.82.18-.46,1.34.22,1.31.48-.02.47-1.46-.22-1.31Z"/>
  <path class="st0" d="M133.19,146.37l-42.93-21.37,28.85-53.71c-7.16-11.01-17.68-19.86-30.05-24.45-26.37-9.79-57.87-.51-72.23,24.1-.31.54-1.18,1.76-1.22,2.28-.06.7.8-.09.66.76l-1.08-.22c-6.31,12-8.26,26.1-5.6,39.41,3.59,17.95,16.15,33.9,28.35,46.96,5.75,6.15,11.87,11.93,18.07,17.62l11.05-10.18-1.86-1.85c-2.04-1.99-7.2-4.05-3.47-7.2l32.19-5.91c1.73-.23,3.16.87,3.09,2.65-2.41,9.32-4.01,18.88-6.41,28.2-.67,2.61-.8,4.72-4.34,3.68-1.47-1.44-2.68-3.2-4.09-4.67-.34-.36-.89-1.09-1.38-.96l-9.8,8.83c-.18.18-.25.38-.19.63.09.35,4.85,3.96,5.57,4.52,9.56,7.52,19.44,14.87,29.46,21.77.93.64,2.63,1.99,3.49,2.42.23.11.4.15.65.11l18.53-58.89-.13-1.1.43.22,4.4-13.66ZM111.5,63.92h.65v.44h-.65v-.44ZM14.84,111.65l.33.65-.65-.33.32-.32ZM15.94,118.66l-.26.19-1.17-.2c.07-1.03.8-.72,1.53-.65l-.1.66ZM16.04,102.45h-.87c-.05-.4-.01-.64.33-.87.27.28.63.46.55.87ZM17.2,104.58c-.69-.69.16-1.4.83-.94.63.44,0,1.76-.83.94ZM19.16,90.84c-.87.02-1.75,1.34-1.59-.43l1.75-.22-.16.65ZM20.64,74.21c.83-.01.9.86,0,.87v-.87ZM21.51,105.73l-.84-.25-.03-1.06h.87s0,1.31,0,1.31ZM22.02,84.57c-.2.16-.2.57-.51.59-.03-.43.47-1.64.98-1.53,1.17.24-.41.9-.47.95ZM24.36,129.59h-.44v-.65h.44v.65ZM24.36,127.32c-1.13.28-1.09-1.58.65-1.01.11.51-.18.89-.65,1.01ZM106.46,65.67h.44v.44h-.44v-.44ZM98.69,80.12c.54-.12.73.76.21.87-.54.12-.73-.76-.21-.87ZM95.95,97.85c.25-.28.94.55.65.87-.25.28-.94-.55-.65-.87ZM94.05,73.04c-.88.07-.88-.76-.95-1.46.36-.02.68-.05,1.03.07.39.13,1,1.31-.09,1.39ZM93.76,62.38h-.87c-.01-.83.86-.9.87,0ZM84.35,58.66l-1.31-.54c.57-.68,1.48-.38,1.31.54ZM83.14,94.13c.66,0,.04,1.3-.33.87-.14-.16.1-.87.33-.87ZM74.06,72.02v.65c-.27.3-1.35-.89,0-.65ZM72.96,72.23l.22.87h-.43c-.11-.54-.55-.99.21-.87ZM71.21,53.93c.15-.1,1.03.11,1.07.16.14.16-.03.98.03,1.29l-1.29-.02c-.22-.35-.14-1.2.19-1.42ZM66.83,53.63c.23-.22.88.43.65.65-.23.22-.88-.43-.65-.65ZM64.86,48.15c.06.05,0,.3-.11.44-.81.99-.68-1.14.11-.44ZM58.29,47.05s-.83.27-.87.22v-.87c.39-.19,1.13.32.87.65ZM50.96,46.61l.77-.21v1.09s-.87,0-.87,0l.1-.88ZM45.05,59.98c.35.12.26.75.11.87-.48.4-1.18-1.25-.11-.87ZM43.85,53.85h.44v.65h-.44v-.65ZM41.44,49.47l.43.33v.32s-.43,0-.43,0v-.66ZM37.72,58l-.03,1.29-1.28.68v-1.97s1.31,0,1.31,0ZM30.05,71.14h.44v.44h-.44v-.44ZM27.64,70.27v.87c-1.16.11-1.17-.98,0-.87ZM26.77,77.05v1.09s-.32,0-.32,0l-.55-.76c.23-.34.47-.38.87-.33ZM25.89,107.48c-.05-.58.38-.73.87-.65v.65s-.87,0-.87,0ZM26.33,112.96c.68-.09,1.52.03,1.53.87l-1.53-.22v-.65ZM28.19,121.5c-.35-.48-.72-.62-.55-1.32.26.02.59-.08.83.05.48.27.55,1.22-.28,1.27ZM28.53,103.67c-3.27.74-3.52-4.05-1.39-4.68,3.47-1.03,4.29,4.03,1.39,4.68ZM31.04,116.46c.23,0,.46.74.33.87-.57.57-1.18-.87-.33-.87ZM32.02,139.45h-.87s0-.87,0-.87h.32c.26.27.63.45.55.87ZM32.46,95.88l-.65-.43.87-.44-.22.87ZM35.31,115.8v.65h-.44v-.65h.44ZM34.87,85.81v-.87s.21,0,.21,0l.22.87h-.44ZM36.45,148.25c-.35.63.58,1.01-1.36.83l.03-1.07,1.94-.47c.16.55-.5.51-.61.7ZM36.18,99.82v.65c-1.1.08-1.1-.74,0-.65ZM36.18,88.66c.06.05,0,.3-.11.44-.81.99-.68-1.14.11-.44ZM36.62,116.46c.3.37-.49.68-.87.65v-.87c.05-.05.85.19.87.22ZM37.5,107.04c-.27.3-1.35-.89,0-.65v.65ZM39.9,131.56h-.44v-.65h.44v.65ZM39.9,81.43h-.44v-.44h.44v.44ZM40.78,92.81c-.35-.35.31-1,.65-.65.35.35-.31,1-.65.65ZM41.87,102.89v.44h-.44v-.44h.44ZM42.09,131.56h-.65s0-.65,0-.65c.4-.07.72.24.65.65ZM43.41,153.46h-.44v-.87h.44v.87ZM42.97,98.51v-.87c.58-.05.73.38.65.87h-.65ZM45.16,156.52h-.87v-.87h.87v.87ZM45.16,122.59c-.15.11-1.89-.74-1.53-1.09.55-.05,1.07-.34,1.54.11.28.26.06.93-.01.99ZM44.28,99.16c.14.16-.1.87-.33.87-.66,0-.04-1.3.33-.87ZM46.69,146.67c-1.1.08-1.1-.74,0-.65v.65ZM45.82,97.85l.97-.2c1.16,1.06-1.13,1.74-.97.2ZM48,109.56l-.87.33.33-.87.14.39c.06.07.51-.48.4.15ZM52.82,120.51l-.43.33v-.66s.43,0,.43,0v.32ZM53.48,117.33l-.65-.33c-.14-.66,1.21-.81.65.33ZM54.79,147.33h-.87v-.87h.87v.87ZM54.57,133.32c.22.22-.43.88-.65.65-.22-.22.43-.88.65-.65ZM55.23,104.2c-.06.06-.4-.23-.43-.33-.29-.9.93-.66.43.33ZM57.64,102.66h-.44v-.65h.44v.65ZM57.53,96.97c-.78.2-.98-.75-.43-.87.38-.09,1.05.71.43.87ZM58.51,79.46c-.07-.4.24-.72.65-.65v.65s-.65,0-.65,0ZM59.72,65.88c-.66,0-.04-1.3.33-.87.14.16-.1.87-.33.87ZM46.9,71.02c-7.78,5.76-14.01,13.38-16.68,22.84l-3.45-.17c.42-6.08,2.86-12.69,6.26-17.71.95-1.4,2.26-2.66,3.26-3.97.25-.33.26-.91.39-1.04.12-.12.7-.14,1.04-.39,1.18-.86,2.35-2.17,3.66-3.13,8.66-6.31,19.77-8.11,30.28-6.61-.09.43-.44.38-.77.44-9.72,1.57-16.09,3.89-23.98,9.73ZM71.65,106.17v.44h-.44v-.44h.44ZM70.55,104.86v.87h-.87v-.87h.87ZM65.3,67.42h-.87c-.11-1.16.98-1.17.87,0ZM61.14,119.3v-.65c.77,0,.83.64,0,.65ZM62.89,64.57h-.44v-.44h.44v.44ZM64.42,78.58l1.28.04.47,1.28c-.99.43-1.91-.21-1.75-1.31ZM65.96,122.15h-.44v-.44h.44v.44ZM65.85,88c-.6-.14.05-.87.22-.87.43,0,.39,1.01-.22.87ZM67.27,129.16h.44v.44h-.44v-.44ZM67.71,134.63c-.16-.16.08-.97.54-.87.81.18-.12,1.3-.54.87ZM68.59,140.54c-.07-.41.26-.73.65-.65v.65s-.65,0-.65,0ZM70.55,127.95l-.87.55v-.77s.87-.1.87-.1v.32ZM70.77,116.79c.45-.61.44-.08.74.24.12.13.42.02.35.19l-.55.54-.55-.98ZM71.87,131.13c-.07-.41.26-.73.65-.65v.65s-.65,0-.65,0ZM72.09,78.36v-.65s.87,0,.87,0c.05.58-.38.73-.87.65ZM73.18,93.25c-.14-.16.1-.87.33-.87.66,0,.04,1.3-.33.87ZM73.62,135.29c0-.77.64-.83.65,0h-.65ZM75.15,96.53c-1.21-.12-1.21-.76,0-.87v.87ZM76.46,58.66l-1.53-.77c-.13-.26.77-.98,1.08-.76.01.95.91.67.44,1.52ZM77.12,57.13h-.65s0-.65,0-.65c.4-.07.72.24.65.65ZM78.87,53.63l.22.55c-.93.99-1.4-.39-.22-.55ZM78.88,78.14v-.87s.65,0,.65,0c.08.5-.07.92-.65.87ZM78.44,76.39c.23-.54.41-1.01,1.09-.87l.22.87h-1.31ZM81.51,70.6l-1.54.1c-.39-.76,1.26-1.27,1.52-1.09.06.04.37.85.02.99ZM83.03,147.11h-.65v-.44h.65v.44ZM82.82,127.19v-.87s.65,0,.65,0c.08.5-.07.92-.65.87ZM83.25,73.33c-.2-.16-.24-1,.32-.87.69.15.06,1.19-.32.87ZM84.35,63.48c.25-.28.94.55.65.87-.25.28-.94-.55-.65-.87ZM84.89,78.58c-.9.29-.66-.93.33-.43.06.06-.23.4-.33.43ZM88.95,93.03v-.65c.77,0,.83.64,0,.65ZM90.7,54.28l-.77-.21c-.6-.81,1.08-1.37.77.21ZM88.51,196.59v-.44s.32,0,.32,0l.33.43h-.66ZM90.7,193.52h-.65s0-.65,0-.65c.4-.07.72.24.65.65ZM94.09,206.66l-.32-1.08.63-.02.46-.86c-.03.26-.27,2.2-.76,1.97ZM94.42,183.78c-.13-.52.76-.63,1.09-.54.27.23-.89,1.38-1.09.54ZM98.12,195.47l-1.07.02.24-.85c.78-.14,1.25.04.83.83ZM99.46,195.93l.33-.65.11.65h-.44ZM100.77,196.04l-.43.33v-.66s.43,0,.43,0v.32ZM104.27,180.6h-.87s.21-.77.21-.77l.66-.1v.87ZM105.14,135.94h-.87v-.87h.87v.87ZM106.46,207.75h-.32s-.55-.55-.55-.55v-.32s.87,0,.87,0v.87ZM106.9,203.59h-.65v-.87h.65v.87ZM107.34,188.05l-.22-.87c.94-.15,1.27.78.22.87ZM109.74,163.75c.77,0,.83.64,0,.65v-.65ZM110.62,189.14l-.85-.24.08-.86.77-.21v1.31ZM115.98,151.92l-.33-.65h.66s-.33.65-.33.65ZM119.98,143.66c.13-.31.05-.33.49-.27l.21,1.18c-.93.98-1.08,0-.7-.91ZM123.1,173.6c-.42.42-1.35-.7-.54-.87.46-.1.7.71.54.87ZM127.92,150.83v-.87h.87v.87h-.87Z"/>
  <path class="st0" d="M194.47,45.75l-25.62,23.53-.63.08c-.16-.43-.39-.83-.69-1.17-.65-.75-4.15-4.78-4.65-4.98-1-.4-2.58-.26-3.23.65-.61.86-1.78,6.44-2.12,7.89-1.64,6.92-3.46,14.29-4.82,21.24-.53,2.71-1.43,5.81,2.65,5.49,9.91-2.64,20.71-3.71,30.57-6.21,1.77-.45,2.79-1.66,2.02-3.56-.48-1.18-4.37-3.86-5.51-5-.18-.18-.31-.2-.23-.53l30.49-26.9c11.56,9.15,19.35,22.86,20.74,37.63l-.88.11c-.07.54.81.65.88.92.08.33.19,2.06.22,2.57.11,2.05-.08,4.12-.18,6.14-.06,1.18.65,3.08-1.58,2.52v1.31c.8.05.38-1.06,1.4-.45.26.2.15.92.13,1.22-.44,5.31-2.37,12.07-4.49,16.96-.29.67-1.67,3.89-1.97,4.18-.46.44-1.2-.42-1.64.32l1.09.86c-4.69,8.8-10.59,16.96-17.18,24.42-22.93,25.99-54.07,50.19-82.93,69.45-.57.38-4.92,3.4-5.17,3.22-.06-.25-.16-.45-.38-.61-1.48-1.07-3.71-2.58-5.26-3.5-.3-.18-.61-.26-.95-.25l.04-.5,24.27-53.36.65.22-.44-.54,13.59-29.99-42.69-21.28,17.53-39.7,1.07.2c-.35-.53-.91-.8-.56-1.53l9.32-20.9c13.49-10.55,31.74-14.97,48.65-12.09,2.86.49,5.63,1.43,8.49,1.91ZM170.82,49.03c-.77-.11-.92.14-.33.65l.33-.65ZM166.66,53.85h-.44v.44h.44v-.44ZM176.3,55.6h-.44v.44h.44v-.44ZM166.88,57.35c-.22-.22-.88.43-.65.65s.88-.43.65-.65ZM152.43,57.57h-.65c-.05.4-.01.64.33.87h.32s0-.87,0-.87ZM151.45,61.51c-.52.11-.32.99.21.87s.32-.99-.21-.87ZM157.47,64.79c.08-1.1-.74-1.1-.65,0h.65ZM204.76,64.79c.07-.4-.24-.72-.65-.65v.65s.65,0,.65,0ZM217.24,64.35h-.44v.65h.44v-.65ZM212.42,65.01h-.87v.65h.87v-.65ZM150.24,66.54c-.41-.07-.73.26-.65.65h.65s0-.65,0-.65ZM206.95,68.29c.74.55,1.45-1.24.55-1.3-.58-.04-.97.99-.55,1.3ZM219.21,67.2s-.44-.02-.55-.22l-.33.65c.29.05,1.07-.27.87-.43ZM168.85,67.2c-1.35-.23-.27.95,0,.65v-.65ZM206.07,70.04c.14-.14,0-1.21-.54-1.09l-.33.34.24.74c.08.05.61.04.63.02ZM148.49,69.39h-.44v.44h.44v-.44ZM202.79,71.58l-.11-.65-.33.65h.44ZM209.36,72.24h-.44v.44h.44v-.44ZM219.65,72.67c-.77-.25-.17.46-.27.62-.02.04-.36.02-.4.16-.34,1.36,1.39,1.28.66-.78ZM225.12,77.27c.07-.4-.24-.72-.65-.65v.65s.65,0,.65,0ZM213.08,77.05l-.22.55.32.32.33-.54-.43-.33ZM198.85,78.15h-.32s-.55.55-.55.55c.08.65.38.5.85.3l.02-.85ZM205.85,79.02h-.43s0,1.09,0,1.09h.65s-.22-1.09-.22-1.09ZM205.2,79.24h-.44v.44h.44v-.44ZM151.34,79.9h-.65s0,.87,0,.87l.62-.25.03-.63ZM212.42,80.55l-.11-.65-.33.65h.44ZM139.08,80.12h-.44s0,.66,0,.66l.43-.33v-.32ZM218.11,80.77h-.88c.12.61-.03,1.42.88.99v-.99ZM139.96,80.99h-.44v.87h.44v-.87ZM220.94,82.07c.34-.7.3-1.16-.63-1.08v1.09s.63-.02.63-.02ZM200.6,83.84l-.03-.74-.52-.35-.33.54.55.55h.32ZM133.17,84.27l-.1-.88-.77-.21v1.09s.87,0,.87,0ZM147.4,84.93c-.85-.18-.9.35-.33.87l.33-.87ZM128.9,88c-.09.02-.22.25-.33.33.38.83.82,1.05.87,0-.16-.16-.27-.39-.54-.33ZM131.62,89.54c-.27-.09-1.45.21-1.08.64.53.16.73.48,1.31.22l-.23-.87ZM146.09,90.18l-.33-.43h-.32s0,.43,0,.43h.66ZM141.03,89.99l-1.26.02-.46.94c.85.83,1.3.13,1.96-.43l-.23-.53ZM196,91.28c-.21-.21-.94.26-1.09.55l.76.33c.28-.08.46-.74.33-.87ZM221.4,94.57c-.41-.06-.76,0-.87.43h.87s0-.43,0-.43ZM206.95,95.22h-.44v.44h.44v-.44ZM196.66,97.63c-.37-.43-.99.88-.33.87.22,0,.46-.71.33-.87ZM135.78,98.31c-.11-.09-.51,0-.72-.03-.51.51-.44,1.14.2,1.54.69.08.77-1.3.52-1.51ZM186.81,98.72l-.33-.43h-.32s0,.43,0,.43h.66ZM142.8,98.94h-.65s.03.63.03.63l.62.25v-.88ZM214.61,99.6h-1.75s0,1.31,0,1.31c.59.21.35-.39.58-.44.37-.07.81.12,1.18-.1v-.78ZM139.06,100.93c-.71-.48-1.39,1.19.23.86l-.23-.86ZM232.56,102.01c.1-1.17-.98-1.16-.87,0h.87ZM189.87,102.23h-.44v.44h.44v-.44ZM158.78,102.67h-.44v.44h.44v-.44ZM200.6,102.89h-.44v.44h.44v-.44ZM222.27,102.89c-.14-.14-.87.1-.87.33,0,.85,1.44.24.87-.33ZM142.36,104.42c-.42-.08-.61.29-.87.55v.32s.87,0,.87,0v-.87ZM158.13,104.42h-.87v1.32s.87,0,.87,0v-1.32ZM164.48,104.64h-.44v.44h.44v-.44ZM134.92,104.86h-.87v.87h.87v-.87ZM167.1,105.73l-.11-.65-.33.65h.44ZM225.45,105.74l-.32.32.32.32.32-.32-.32-.32ZM150.46,105.95c-.5-.5-1.38.9-.54,1.09.54.12.68-.95.54-1.09ZM152.87,107.92c1.46.15,1.45-1.03,0-.87v.87ZM160.75,107.05c-1.35-.23-.27.95,0,.65v-.65ZM198.41,107.05c-.9.02-.83.89,0,.87v-.87ZM141.93,109.45c.42-.42-.7-1.35-.87-.54-.1.46.71.7.87.54ZM202.31,110.52c.2-.39-1.09-1.5-1.27-1.28-.13,1.13.24,2.34,1.27,1.28ZM225.69,109.69c-.58.19-.28,1.95-.03,1.95,1.36-.23,1.49-2.43.03-1.95ZM150.03,109.89h-.44v.65h.44v-.65ZM216.15,111.86c1.15.49,1.19-.77,0-.65v.65ZM144.89,112.08c-.23.05-.41.51-.33.76,1.38,1.16,1.1-.94.33-.76ZM207.17,112.3l-.84.25-.02,1.04,1.29.02-.44-1.31ZM229.94,112.74c-1.46-.15-1.45,1.03,0,.87v-.87ZM149.13,113.64c-.09-.14-.75-.3-.85.09-.28,1.09,1.52.98.85-.09ZM196.88,113.83h-.43c-.08.5.07.93.66.87l-.22-.87ZM169.9,114.11l-.82-.06.03,1.28c.66.43,1.08-.04,1.72-.19l-.93-1.03ZM208.7,115.58l-1.09-1.09.09.89,1,.2ZM220.3,115.58c.29-.33-.41-1.16-.65-.87-.29.33.41,1.16.65.87ZM205.82,114.96c-.6-.24-1,.86-.84,1.27h1.32c.21-.28-.31-1.21-.47-1.27ZM175.68,117.51l.51-.17c.53-2.52-2.33-2.97-1.21-.37.11.25.7.05.7.54ZM215.05,115.58c-.11-.08-.65.18-.84.26-.26.93.15,1.12.96.63.14-.14-.09-.86-.12-.88ZM124.39,116.04l-.85-.24v.87c.73.02,1.04.2.85-.63ZM132.07,116.24h-.87s0,.32,0,.32c.23.34.47.38.87.33v-.65ZM159.44,116.68h-.77s-.1.87-.1.87h.32s.55-.87.55-.87ZM199.72,117.99c.11-.67-1.03-1.26-1.31-.54-.33.85.88.64,1.31.54ZM208.48,117.34h-1.09s0,.32,0,.32l.32.26.78-.15v-.43ZM221.62,117.99l-.11-.65-.33.65h.44ZM203.01,117.55h-.44s0,.66,0,.66l.43-.33v-.32ZM214.39,117.55c-.35-.35-1,.31-.65.65s1-.31.65-.65ZM219.21,118.43c-.79-.7-.91,1.43-.11.44.11-.14.16-.39.11-.44ZM221.62,118.43c-1.35-.31-1.15.97,0,.87v-.87ZM156.6,120.18c-.43.37.88.99.87.33,0-.22-.71-.46-.87-.33ZM159.88,121.27l.65-.33-.32-.32-.33.65ZM209.14,121.71c-.4-.05-.64-.01-.87.33.28.27.46.63.87.55v-.87ZM137.22,121.93c-.3.07-.75.74-.22.87.94.25.91-1.03.22-.87ZM173.89,122.37h-.87v.87h.87v-.87ZM192.06,123.47c-.25-.25-1.16.32-.87.65.43.51,1.24-.29.87-.65ZM179.58,125h-.44s.33.65.33.65l.11-.65ZM149.37,125.65h-.44v.65h.44v-.65ZM221.4,125.87s-.44-.05-.61-.18c-.08.61-.51.48-.76.62-.47.28.01,1,.49.87v-.88c.39.41,1.16-.1.88-.43ZM166.01,127.84c-.41-.07-.73.26-.65.65h.65s0-.65,0-.65ZM193.16,130.91c.4-.4-.51-1.16-.87-.65-.45.63.65.88.87.65ZM149.37,132.44l-.33-.65-.32.32.65.33ZM154.63,135.5c.19.22,1,.22.87-.32s-1.22-.08-.87.32ZM165.57,135.07h-.87s0,.87,0,.87h.32c.26-.27.63-.45.55-.87ZM188.12,135.94c.07-.41-.26-.73-.65-.65v.65s.65,0,.65,0ZM206.95,136.17l-1.09-.22c-.05.28.04.49.32.59l.77-.15v-.21ZM166.23,136.16h-.44v.44h.44v-.44ZM190.31,137.69c.07-.41-.26-.73-.65-.65v.65s.65,0,.65,0ZM194.69,139.88c.1-1.17-.98-1.16-.87,0h.87ZM193.37,141.42l-.87.22c.09,1.05,1.02.72.87-.22ZM187.68,142.51h-.44v.44h.44v-.44ZM164.04,142.73c-.35-.35-1,.31-.65.65s1-.31.65-.65ZM177.39,143.17h-.44v.65h.44v-.65ZM184.62,143.17h-.65v.44h.65v-.44ZM175.75,144.48c-.59.12-.8,1.63-.22,1.75.65.14,1.12-1.93.22-1.75ZM160.75,146.02s-.65-.23-.76-.02l-.33.56c.41.82,1.31-.28,1.09-.54ZM180.24,145.8c-.4-.34-.95.81-.32,1.09l.54-.34-.22-.75ZM194.03,147.77l-.84.03c-.79,1.75,1,1.61.84-.03ZM198.36,149.47l.17-1.05c-1.02-.72-1.53.43-1.43,1.32l1.27-.27ZM203.67,149.08c.83-.02.77-.66,0-.65v.65ZM198.41,150.39l-1.28.47-.04,1.28c1.16-.35,1.54-.42,1.31-1.75ZM168.85,153.02c.31-.66.17-1.26-.65-1.31-.15.58.18,1.03.65,1.31ZM180.62,153.51c-.74-.76-1.71.57-.46,1.25l.7-.57c.04-.18-.1-.55-.23-.68ZM151.78,155.43c-.48-.14-1.08.86-.54,1.09.81.35.51-.8.54-1.09ZM166.45,156.96h-.87v.87h.87v-.87ZM180.46,157.4c-.22.26.7,1.37,1.09.54.05-.56-.82-.86-1.09-.54ZM198.63,158.06h-1.09s0,.88,0,.88c.47.06.65-.52,1.09-.22v-.66ZM187.46,159.59c-2.46-.26.06,2.57.66,1.97.18-1-.93-1-.66-1.97ZM181.11,162.87h-.44v.44h.44v-.44ZM157.03,163.75c-.42-.42-1.35.7-.54.87.46.1.7-.71.54-.87ZM193.81,164.41c-.63-.45-1.12.76-.65,1.09.63.45,1.12-.76.65-1.09ZM164.7,165.5c.9-.02.83-.89,0-.87v.87ZM184.4,164.84h-.87s0,.87,0,.87h.32c.26-.27.63-.45.55-.87ZM194.53,167.08c-.15.44-.02.79.49.83l.76-.99c-.25-.66-1.15-.12-1.25.15ZM157.91,167.69h-.44v.44h.44v-.44ZM181.11,169c.08-.5-.07-.92-.65-.87v.87s.65,0,.65,0ZM154.19,169.22c-.14.14,0,1.21.54,1.09.84-.19-.04-1.59-.54-1.09ZM167.32,176.45l-1.4-.43c-.76.78-.44,1.33.59,1.08l.81-.64ZM156.16,176.44l-.68.13c0,.59-1.15,3.19-.3,3.37,1.43-.51.89-2.31.98-3.5ZM184.4,178.42c-1.1-.08-1.1.74,0,.65v-.65ZM171.7,184.54c.27-.69.71-.98-.29-1.29l-.56.72.85.58ZM145.85,188.72l-.63-.02.24,1.29.63.02-.24-1.29ZM161.19,193.96h-.65v.87h.65v-.87ZM150.9,197.68c.14.14.87-.1.87-.33,0-.85-1.44-.24-.87.33ZM138.86,205.78c.19.26,1.08.22.87-.55s-1.24.03-.87.55ZM134.26,208.85c.05-.58-.38-.73-.87-.65v.65s.87,0,.87,0ZM123.97,213.23h-.65c-.05.4-.01.64.33.87h.32s0-.87,0-.87Z"/>
  <path class="st2" d="M168.85,67.2v.65c-.27.3-1.35-.89,0-.65Z"/>
  <path class="st2" d="M229.44,30.26c.23.25.29.7.27,1.04-.71-.17-.63.39-1.09.66.24-.98-.74-.8-.41-1.83.16-.52,1.02-.09,1.23.14Z"/>
  <path class="st2" d="M240.9,34.11c.07.12,1.49.49-.02.91.16-.57-.63-.91-.65-1.03-.08-.34-.07-1.51.33-1.6.95-.2.3,1.63.35,1.72Z"/>
  <path class="st2" d="M215.23,35.49c.37.61-.64,1-1.14,1.08l-.57-1.33c.73-.32,1.07-.16,1.71.25Z"/>
  <path class="st2" d="M244.39,32.17l-.45,1.3c-.55.46-1.25-.97-1.08-1.52l1.53.22Z"/>
  <path class="st2" d="M224.96,43.92c.29.1.52.1.82.07l-.34,1.09-1.2-.59.04-.69.57-.19c.04.09.06.29.11.31Z"/>
  <path class="st2" d="M199.07,57.13l-.23,1.09c-.5.07-.98-.18-1.3-.54-.15-.66,1.19-.59,1.53-.54Z"/>
  <path class="st2" d="M227.31,22.1c.26.35-.41,1.44-.75,1.31-1.08-.43-.27-1.56.75-1.31Z"/>
  <path class="st2" d="M228.97,41.6c1.35-.42.88,1.25.42,1.28s-1.23-1.03-.42-1.28Z"/>
  <path class="st2" d="M213.49,31.76c.35.54-.09.8-.63.41v.73s-.66.14-.66.14l.44-.65c-.99-.02-.16-.48.14-.88.1,0,.69.22.71.25Z"/>
  <path class="st2" d="M237.16,29.98l1.09.33c-.05,1.3-1.35.88-1.09-.33Z"/>
  <path class="st2" d="M186.48,67.42c.69-.15.7,1.28.22,1.31-.68.03-1.04-1.13-.22-1.31Z"/>
  <polygon class="st2" points="222.27 38.52 221.18 38.3 221.4 37.43 222.17 37.64 222.27 38.52"/>
  <polygon class="st2" points="227.09 14.65 226.22 14.66 226.22 13.56 226.99 13.77 227.09 14.65"/>
  <path class="st2" d="M211.77,42.89c-.33-.23-.3-1.23.52-1.07s.12,1.51-.52,1.07Z"/>
  <polygon class="st2" points="203.85 52.57 204.1 53.62 203.45 53.4 203.23 54.06 203.01 52.53 203.85 52.57"/>
  <path class="st2" d="M237.38,33.27c.34.31-1.3,1.59-1.09,0h1.09Z"/>
  <polygon class="st2" points="232.34 44.65 231.69 44.1 232.02 43.56 232.56 43.89 232.34 44.65"/>
  <polygon class="st2" points="234.53 30.2 234.32 30.97 233.66 31.07 233.66 30.2 234.53 30.2"/>
  <path class="st2" d="M217.24,25.17v.65s-.65,0-.65,0c-.28-.8-.17-.94.65-.65Z"/>
  <path class="st2" d="M205.85,50.34v.87s-.32,0-.32,0c-.34-.23-.38-.47-.33-.87h.65Z"/>
  <path class="st2" d="M199.29,55.59v-.87c.83-.01.9.86,0,.87Z"/>
  <polygon class="st2" points="226.87 20.35 226.22 20.35 226.22 20.02 226.76 19.48 227.09 19.8 226.87 20.35"/>
  <path class="st2" d="M214.94,24.51c.16,0,.82.73.22.87s-.64-.88-.22-.87Z"/>
  <path class="st2" d="M205.42,48.15h-.44s0-.87,0-.87c.44.12.49.47.43.87Z"/>
  <rect class="st2" x="230.16" y="31.51" width=".44" height=".65"/>
  <rect class="st2" x="206.51" y="49.69" width=".44" height=".65"/>
  <path class="st2" d="M156.16,176.44c-.09,1.2.45,2.99-.98,3.5-.85-.18.3-2.78.3-3.37l.68-.13Z"/>
  <path class="st2" d="M175.68,117.51c0-.5-.59-.3-.7-.54-1.12-2.6,1.74-2.15,1.21.37l-.51.17Z"/>
  <path class="st2" d="M225.69,109.69c1.47-.48,1.34,1.72-.03,1.95-.25,0-.55-1.76.03-1.95Z"/>
  <path class="st2" d="M187.46,159.59c-.27.97.84.97.66,1.97-.6.6-3.11-2.24-.66-1.97Z"/>
  <path class="st2" d="M141.03,89.99l.23.53c-.65.56-1.11,1.26-1.96.43l.46-.94,1.26-.02Z"/>
  <path class="st2" d="M169.9,114.11l.93,1.03c-.64.15-1.06.62-1.72.19l-.03-1.28.82.06Z"/>
  <path class="st2" d="M198.36,149.47l-1.27.27c-.1-.89.41-2.03,1.43-1.32l-.17,1.05Z"/>
  <path class="st2" d="M198.41,150.39c.23,1.32-.15,1.4-1.31,1.75l.04-1.28,1.28-.47Z"/>
  <path class="st2" d="M214.61,99.6v.78c-.36.22-.8.02-1.17.1-.23.05,0,.65-.58.44v-1.31s1.75,0,1.75,0Z"/>
  <path class="st2" d="M202.31,110.52c-1.04,1.06-1.4-.15-1.27-1.28.19-.22,1.47.89,1.27,1.28Z"/>
  <path class="st2" d="M175.75,144.48c.9-.18.43,1.88-.22,1.75-.58-.12-.37-1.63.22-1.75Z"/>
  <path class="st2" d="M135.78,98.31c.25.21.17,1.59-.52,1.51-.63-.39-.71-1.03-.2-1.54.2.03.6-.06.72.03Z"/>
  <path class="st2" d="M180.62,153.51c.13.13.27.51.23.68l-.7.57c-1.25-.67-.27-2.01.46-1.25Z"/>
  <path class="st2" d="M205.82,114.96c.17.07.69.99.47,1.27h-1.32c-.16-.42.25-1.51.84-1.27Z"/>
  <polygon class="st2" points="207.17 112.3 207.6 113.61 206.31 113.59 206.33 112.55 207.17 112.3"/>
  <path class="st2" d="M167.32,176.45l-.81.64c-1.03.25-1.34-.29-.59-1.08l1.4.43Z"/>
  <path class="st2" d="M194.03,147.77c.16,1.64-1.63,1.78-.84.03l.84-.03Z"/>
  <path class="st2" d="M206.95,68.29c-.42-.31-.03-1.34.55-1.3.9.06.19,1.85-.55,1.3Z"/>
  <rect class="st2" x="157.25" y="104.42" width=".87" height="1.32"/>
  <path class="st2" d="M171.7,184.54l-.85-.58.56-.72c1,.31.56.6.29,1.29Z"/>
  <path class="st2" d="M194.53,167.08c.1-.27,1-.81,1.25-.15l-.76.99c-.51-.04-.64-.39-.49-.83Z"/>
  <path class="st2" d="M199.72,117.99c-.43.09-1.64.3-1.31-.54.28-.72,1.42-.13,1.31.54Z"/>
  <path class="st2" d="M219.65,72.67c.72,2.06-1,2.15-.66.78.03-.14.37-.12.4-.16.09-.16-.51-.87.27-.62Z"/>
  <path class="st2" d="M215.05,115.58s.26.74.12.88c-.81.5-1.22.3-.96-.63.19-.08.72-.34.84-.26Z"/>
  <polygon class="st2" points="145.85 188.72 146.09 190.02 145.45 190 145.21 188.71 145.85 188.72"/>
  <polygon class="st2" points="133.17 84.27 132.29 84.28 132.29 83.18 133.06 83.4 133.17 84.27"/>
  <path class="st2" d="M193.81,164.41c.47.33-.02,1.54-.65,1.09-.47-.33.02-1.54.65-1.09Z"/>
  <path class="st2" d="M131.62,89.54l.23.87c-.58.26-.78-.07-1.31-.22-.37-.44.81-.74,1.08-.64Z"/>
  <path class="st2" d="M152.87,107.92v-.87c1.45-.16,1.46,1.03,0,.87Z"/>
  <path class="st2" d="M144.89,112.08c.77-.18,1.05,1.92-.33.76-.08-.26.1-.71.33-.76Z"/>
  <path class="st2" d="M229.94,112.74v.87c-1.45.16-1.46-1.03,0-.87Z"/>
  <path class="st2" d="M218.11,80.77v.99c-.9.44-.76-.38-.88-.98h.88Z"/>
  <path class="st2" d="M150.46,105.95c.14.14,0,1.21-.54,1.09-.84-.19.04-1.59.54-1.09Z"/>
  <path class="st2" d="M154.19,169.22c.5-.5,1.38.9.54,1.09-.54.12-.68-.95-.54-1.09Z"/>
  <path class="st2" d="M220.94,82.07l-.64.02v-1.09c.93-.08.97.37.64,1.08Z"/>
  <rect class="st2" x="134.05" y="104.86" width=".87" height=".87"/>
  <path class="st2" d="M206.07,70.04s-.55.03-.63-.02l-.24-.74.33-.34c.54-.12.68.95.54,1.09Z"/>
  <polygon class="st2" points="208.7 115.58 207.7 115.38 207.61 114.49 208.7 115.58"/>
  <path class="st2" d="M160.75,146.02c.22.26-.69,1.36-1.09.54l.33-.56c.11-.21.74,0,.76.02Z"/>
  <rect class="st2" x="173.02" y="122.37" width=".87" height=".87"/>
  <rect class="st2" x="165.57" y="156.96" width=".87" height=".87"/>
  <path class="st2" d="M149.13,113.64c.66,1.07-1.14,1.18-.85.09.1-.38.76-.23.85-.09Z"/>
  <path class="st2" d="M180.46,157.4c.27-.32,1.14-.02,1.09.54-.39.82-1.32-.28-1.09-.54Z"/>
  <path class="st2" d="M198.63,158.06v.66c-.45-.3-.62.28-1.09.22v-.87s1.09,0,1.09,0Z"/>
  <polygon class="st2" points="200.6 83.84 200.28 83.84 199.73 83.29 200.06 82.74 200.57 83.1 200.6 83.84"/>
  <path class="st2" d="M196,91.28c.13.13-.05.79-.33.87l-.76-.33c.15-.29.88-.76,1.09-.55Z"/>
  <path class="st2" d="M221.62,118.43v.87c-1.15.1-1.35-1.18,0-.87Z"/>
  <path class="st2" d="M138.86,205.78c-.37-.51.66-1.31.87-.55s-.68.81-.87.55Z"/>
  <path class="st2" d="M168.85,153.02c-.47-.28-.8-.73-.65-1.31.82.05.96.65.65,1.31Z"/>
  <path class="st2" d="M139.06,100.93l.23.86c-1.62.34-.95-1.34-.23-.86Z"/>
  <path class="st2" d="M137.22,121.93c.69-.16.72,1.12-.22.87-.53-.14-.08-.8.22-.87Z"/>
  <path class="st2" d="M198.85,78.15l-.02.85c-.47.2-.77.35-.85-.3l.55-.55h.32Z"/>
  <path class="st2" d="M151.78,155.43c-.03.29.27,1.44-.54,1.09-.54-.23.06-1.23.54-1.09Z"/>
  <path class="st2" d="M124.39,116.04c.18.83-.12.65-.85.63v-.87s.85.24.85.24Z"/>
  <polygon class="st2" points="159.44 116.68 158.89 117.55 158.57 117.55 158.67 116.67 159.44 116.68"/>
  <path class="st2" d="M232.56,102.01h-.87c-.11-1.16.98-1.17.87,0Z"/>
  <path class="st2" d="M194.69,139.88h-.87c-.11-1.16.98-1.17.87,0Z"/>
  <path class="st2" d="M180.24,145.8l.22.75-.54.34c-.63-.28-.08-1.43.32-1.09Z"/>
  <path class="st2" d="M141.93,109.45c-.16.16-.97-.08-.87-.54.18-.81,1.3.12.87.54Z"/>
  <polygon class="st2" points="205.85 79.02 206.07 80.11 205.42 80.12 205.42 79.02 205.85 79.02"/>
  <path class="st2" d="M128.9,88c.27-.06.38.17.54.33-.05,1.05-.49.83-.87,0,.11-.08.24-.31.33-.33Z"/>
  <path class="st2" d="M157.03,163.75c.16.16-.08.97-.54.87-.81-.18.12-1.3.54-.87Z"/>
  <path class="st2" d="M184.4,164.84c.08.42-.29.61-.55.87h-.32s0-.87,0-.87h.87Z"/>
  <path class="st2" d="M193.16,130.91c-.22.22-1.32-.02-.87-.65.36-.51,1.27.26.87.65Z"/>
  <path class="st2" d="M165.57,135.07c.08.42-.29.61-.55.87h-.32s0-.87,0-.87h.87Z"/>
  <path class="st2" d="M142.36,104.42v.87s-.87,0-.87,0v-.32c.27-.26.45-.63.87-.55Z"/>
  <path class="st2" d="M151.45,61.51c.54-.12.73.76.21.87s-.73-.76-.21-.87Z"/>
  <path class="st2" d="M193.37,141.42c.15.94-.78,1.27-.87.22l.87-.22Z"/>
  <rect class="st2" x="211.55" y="65.01" width=".87" height=".65"/>
  <rect class="st2" x="160.54" y="193.96" width=".65" height=".87"/>
  <path class="st2" d="M216.15,111.86v-.65c1.19-.11,1.15,1.14,0,.65Z"/>
  <path class="st2" d="M209.14,121.71v.87c-.41.09-.59-.28-.87-.55.23-.34.47-.38.87-.33Z"/>
  <path class="st2" d="M192.06,123.47c.37.37-.44,1.17-.87.65-.28-.34.62-.91.87-.65Z"/>
  <path class="st2" d="M221.4,125.87c.29.34-.49.84-.87.43v.88c-.48.13-.97-.59-.5-.87.25-.14.67-.01.76-.62.18.13.59.16.61.18Z"/>
  <path class="st2" d="M134.26,208.85h-.87s0-.65,0-.65c.5-.08.92.07.87.65Z"/>
  <path class="st2" d="M152.43,57.57v.87s-.32,0-.32,0c-.34-.23-.38-.47-.33-.87h.65Z"/>
  <path class="st2" d="M150.9,197.68c-.57-.57.87-1.18.87-.33,0,.23-.74.46-.87.33Z"/>
  <polygon class="st2" points="208.48 117.34 208.48 117.77 207.71 117.92 207.39 117.66 207.39 117.34 208.48 117.34"/>
  <path class="st2" d="M222.27,102.89c.57.57-.87,1.18-.87.33,0-.23.74-.46.87-.33Z"/>
  <path class="st2" d="M123.97,213.23v.87s-.32,0-.32,0c-.34-.23-.38-.47-.33-.87h.65Z"/>
  <path class="st2" d="M181.11,169h-.65s0-.87,0-.87c.58-.05.73.38.65.87Z"/>
  <path class="st2" d="M132.07,116.24v.65c-.4.05-.64.01-.87-.33v-.32s.87,0,.87,0Z"/>
  <path class="st2" d="M157.47,64.79h-.65c-.08-1.1.74-1.1.65,0Z"/>
  <polygon class="st2" points="151.34 79.9 151.31 80.52 150.69 80.77 150.69 79.9 151.34 79.9"/>
  <path class="st2" d="M220.3,115.58c-.25.28-.94-.55-.65-.87.25-.28.94.55.65.87Z"/>
  <polygon class="st2" points="142.8 98.94 142.8 99.82 142.18 99.57 142.15 98.95 142.8 98.94"/>
  <path class="st2" d="M154.63,135.5c-.35-.4.75-.87.87-.32s-.68.54-.87.32Z"/>
  <path class="st2" d="M198.41,107.05v.87c-.83.01-.9-.86,0-.87Z"/>
  <path class="st2" d="M164.7,165.5v-.87c.83-.01.9.86,0,.87Z"/>
  <path class="st2" d="M184.4,178.42v.65c-1.1.08-1.1-.74,0-.65Z"/>
  <path class="st2" d="M164.04,142.73c.35.35-.31,1-.65.65s.31-1,.65-.65Z"/>
  <path class="st2" d="M196.66,97.63c.14.16-.1.87-.33.87-.66,0-.04-1.3.33-.87Z"/>
  <path class="st2" d="M156.6,120.18c.16-.14.87.1.87.33,0,.66-1.3.04-.87-.33Z"/>
  <path class="st2" d="M147.4,84.93l-.33.87c-.57-.53-.53-1.05.33-.87Z"/>
  <path class="st2" d="M206.95,136.17v.21s-.77.15-.77.15c-.28-.1-.37-.31-.32-.59l1.09.22Z"/>
  <path class="st2" d="M214.39,117.55c.35.35-.31,1-.65.65s.31-1,.65-.65Z"/>
  <path class="st2" d="M204.76,64.79h-.65s0-.65,0-.65c.41-.07.73.26.65.65Z"/>
  <path class="st2" d="M166.01,127.84v.65s-.65,0-.65,0c-.07-.4.24-.72.65-.65Z"/>
  <path class="st2" d="M188.12,135.94h-.65s0-.65,0-.65c.4-.07.72.24.65.65Z"/>
  <path class="st2" d="M160.75,107.05v.65c-.27.3-1.35-.89,0-.65Z"/>
  <rect class="st2" x="139.52" y="80.99" width=".44" height=".87"/>
  <path class="st2" d="M190.31,137.69h-.65s0-.65,0-.65c.4-.07.72.24.65.65Z"/>
  <path class="st2" d="M225.12,77.27h-.65s0-.65,0-.65c.41-.07.73.26.65.65Z"/>
  <path class="st2" d="M219.21,118.43c.06.05,0,.3-.11.44-.81.99-.68-1.14.11-.44Z"/>
  <path class="st2" d="M150.24,66.54v.65s-.65,0-.65,0c-.07-.4.24-.72.65-.65Z"/>
  <path class="st2" d="M196.88,113.83l.22.87c-.58.05-.74-.38-.66-.87h.43Z"/>
  <path class="st2" d="M166.88,57.35c.22.23-.43.88-.65.65s.43-.88.65-.65Z"/>
  <path class="st2" d="M219.21,67.2c.19.16-.58.49-.87.43l.33-.65c.11.2.5.18.55.22Z"/>
  <polygon class="st2" points="213.08 77.05 213.52 77.38 213.19 77.92 212.87 77.6 213.08 77.05"/>
  <path class="st2" d="M203.67,149.08v-.65c.77,0,.83.64,0,.65Z"/>
  <path class="st2" d="M170.82,49.03l-.33.65c-.59-.51-.44-.76.33-.65Z"/>
  <path class="st2" d="M221.4,94.57v.44s-.87,0-.87,0c.12-.44.47-.49.87-.43Z"/>
  <rect class="st2" x="216.8" y="64.35" width=".44" height=".65"/>
  <polygon class="st2" points="159.88 121.27 160.21 120.62 160.53 120.95 159.88 121.27"/>
  <rect class="st2" x="183.96" y="143.17" width=".65" height=".44"/>
  <rect class="st2" x="176.96" y="143.17" width=".44" height=".65"/>
  <rect class="st2" x="148.93" y="125.65" width=".44" height=".65"/>
  <rect class="st2" x="149.59" y="109.89" width=".44" height=".65"/>
  <polygon class="st2" points="149.37 132.44 148.72 132.11 149.04 131.79 149.37 132.44"/>
  <polygon class="st2" points="139.08 80.12 139.08 80.44 138.64 80.77 138.64 80.12 139.08 80.12"/>
  <polygon class="st2" points="146.09 90.18 145.43 90.19 145.43 89.75 145.75 89.75 146.09 90.18"/>
  <rect class="st2" x="225.22" y="105.83" width=".46" height=".46" transform="translate(-8.96 190.48) rotate(-45)"/>
  <polygon class="st2" points="179.58 125 179.47 125.65 179.15 125 179.58 125"/>
  <polygon class="st2" points="167.1 105.73 166.67 105.73 167 105.08 167.1 105.73"/>
  <polygon class="st2" points="202.79 71.58 202.35 71.58 202.68 70.92 202.79 71.58"/>
  <polygon class="st2" points="186.81 98.72 186.15 98.72 186.15 98.29 186.48 98.29 186.81 98.72"/>
  <polygon class="st2" points="203.01 117.55 203.01 117.88 202.57 118.21 202.57 117.55 203.01 117.55"/>
  <polygon class="st2" points="212.42 80.55 211.99 80.55 212.31 79.9 212.42 80.55"/>
  <polygon class="st2" points="221.62 117.99 221.18 117.99 221.51 117.34 221.62 117.99"/>
  <rect class="st2" x="204.76" y="79.24" width=".44" height=".44"/>
  <rect class="st2" x="166.23" y="53.85" width=".44" height=".44"/>
  <rect class="st2" x="175.86" y="55.6" width=".44" height=".44"/>
  <rect class="st2" x="165.79" y="136.16" width=".44" height=".44"/>
  <rect class="st2" x="157.47" y="167.69" width=".44" height=".44"/>
  <rect class="st2" x="187.25" y="142.51" width=".44" height=".44"/>
  <rect class="st2" x="148.06" y="69.39" width=".44" height=".44"/>
  <rect class="st2" x="206.51" y="95.22" width=".44" height=".44"/>
  <rect class="st2" x="164.04" y="104.64" width=".44" height=".44"/>
  <rect class="st2" x="200.16" y="102.89" width=".44" height=".44"/>
  <rect class="st2" x="158.35" y="102.67" width=".44" height=".44"/>
  <rect class="st2" x="189.44" y="102.23" width=".44" height=".44"/>
  <rect class="st2" x="180.68" y="162.87" width=".44" height=".44"/>
  <rect class="st2" x="208.92" y="72.24" width=".44" height=".44"/>
  <path class="st2" d="M35.74,217.17c.24.73.89,1.06.66,1.97-.94-.02-.96-1.18-1.1-1.86l.44-.11Z"/>
  <path class="st2" d="M20.42,219.14l-.85-.03c-.71-1.77,1.16-1.75.85.03Z"/>
  <path class="st2" d="M26.77,206.88c.43.65-.75,1.09-1.31.87-.35-.81,1.06-1.26,1.31-.87Z"/>
  <path class="st2" d="M12.32,217.38c-.61-.12-.39.61-.44.66-.37.36-1.33-.59-.73-.87.46.02.99-.43,1.17.21Z"/>
  <polygon class="st2" points="22.39 226.14 22.17 227.24 21.85 227.24 21.52 226.47 22.39 226.14"/>
  <polygon class="st2" points="57.64 192.86 56.76 192.65 56.76 192.1 57.09 191.77 57.61 192.13 57.64 192.86"/>
  <path class="st2" d="M34.65,211.7c1-.06,1.14.51.33,1.09-.41-.27-.35-.63-.33-1.09Z"/>
  <path class="st2" d="M26.33,223.52v-.87c1.16-.11,1.17.98,0,.87Z"/>
  <path class="st2" d="M30.49,208.19c.16.16-.08.97-.54.87-.81-.18.12-1.3.54-.87Z"/>
  <path class="st2" d="M37.5,214.1c.16.16-.08.97-.54.87-.81-.18.12-1.3.54-.87Z"/>
  <path class="st2" d="M33.12,219.14v-.87c1.18-.1.95.76,0,.87Z"/>
  <path class="st2" d="M9.03,218.04v.65s-.87,0-.87,0c-.05-.58.38-.73.87-.65Z"/>
  <path class="st2" d="M5.53,218.26l-.55.65c-.34-.23-.38-.47-.33-.87l.87.22Z"/>
  <path class="st2" d="M41.44,205.12c-.37.43-.99-.88-.33-.87.22,0,.46.71.33.87Z"/>
  <polygon class="st2" points="63.77 182.58 63.77 183.01 63.22 183.23 62.89 182.9 62.89 182.58 63.77 182.58"/>
  <path class="st2" d="M32.46,209.72c.35.35-.31,1-.65.65s.31-1,.65-.65Z"/>
  <path class="st2" d="M34.87,219.79v-.65c.77,0,.83.64,0,.65Z"/>
  <rect class="st2" x="23.7" y="230.74" width=".65" height=".44"/>
  <rect class="st2" x="37.06" y="204.03" width=".44" height=".65"/>
  <rect class="st2" x="35.31" y="215.2" width=".44" height=".44"/>
  <rect class="st2" x="9.26" y="219.58" width=".44" height=".44"/>
  <rect class="st2" x="35.53" y="222.64" width=".44" height=".44"/>
  <polygon class="st2" points="37.72 58 37.69 59.29 36.4 59.97 36.4 58 37.72 58"/>
  <path class="st2" d="M37.06,147.55c.16.55-.5.51-.61.7-.35.63.58,1.01-1.36.83l.03-1.07,1.94-.47Z"/>
  <path class="st2" d="M65.71,78.62l.47,1.28c-.99.43-1.91-.21-1.75-1.31l1.28.04Z"/>
  <path class="st2" d="M72.28,54.09c.14.16-.03.98.03,1.29l-1.29-.02c-.22-.35-.14-1.2.19-1.42.15-.1,1.03.11,1.07.16Z"/>
  <path class="st2" d="M94.14,71.65c.39.13,1,1.31-.09,1.39-.88.07-.88-.76-.95-1.46.36-.02.68-.05,1.03.07Z"/>
  <path class="st2" d="M81.49,69.62c.06.04.37.85.02.99l-1.54.1c-.39-.76,1.26-1.27,1.52-1.09Z"/>
  <path class="st2" d="M76.02,57.13c.01.95.91.67.44,1.52l-1.53-.77c-.13-.26.77-.98,1.08-.76Z"/>
  <path class="st2" d="M45.16,122.59c-.15.11-1.89-.74-1.53-1.09.55-.05,1.07-.34,1.54.11.28.26.06.93-.01.99Z"/>
  <path class="st2" d="M17.2,104.58c-.69-.69.16-1.4.83-.94.63.44,0,1.76-.83.94Z"/>
  <path class="st2" d="M19.32,90.19l-.16.65c-.87.02-1.75,1.34-1.59-.43l1.75-.22Z"/>
  <path class="st2" d="M25.02,126.31c.11.51-.18.89-.65,1.01-1.13.28-1.09-1.58.65-1.01Z"/>
  <path class="st2" d="M16.04,117.99l-.1.66-.26.19-1.17-.2c.07-1.03.8-.72,1.53-.65Z"/>
  <path class="st2" d="M94.86,204.69c-.03.26-.27,2.2-.76,1.97l-.32-1.08.63-.02.46-.86Z"/>
  <path class="st2" d="M45.82,97.85l.97-.2c1.16,1.06-1.13,1.74-.97.2Z"/>
  <path class="st2" d="M28.47,120.23c.48.27.55,1.22-.28,1.27-.35-.48-.72-.62-.55-1.32.26.02.59-.08.83.05Z"/>
  <polygon class="st2" points="21.51 104.42 21.51 105.73 20.67 105.48 20.64 104.42 21.51 104.42"/>
  <path class="st2" d="M84.35,58.66l-1.31-.54c.57-.68,1.48-.38,1.31.54Z"/>
  <path class="st2" d="M27.86,113.83l-1.53-.22v-.65c.68-.09,1.52.03,1.53.87Z"/>
  <polygon class="st2" points="110.62 187.83 110.62 189.14 109.77 188.9 109.85 188.04 110.62 187.83"/>
  <path class="st2" d="M79.53,75.52l.22.87h-1.31c.23-.54.41-1.01,1.09-.87Z"/>
  <path class="st2" d="M98.12,195.47l-1.07.02.24-.85c.78-.14,1.25.04.83.83Z"/>
  <polygon class="st2" points="51.73 46.4 51.73 47.5 50.85 47.49 50.96 46.61 51.73 46.4"/>
  <path class="st2" d="M22.02,84.57c-.2.16-.2.57-.51.59-.03-.43.47-1.64.98-1.53,1.17.24-.41.9-.47.95Z"/>
  <path class="st2" d="M90.7,54.28l-.77-.21c-.6-.81,1.08-1.37.77.21Z"/>
  <rect class="st2" x="69.68" y="104.86" width=".87" height=".87"/>
  <path class="st2" d="M71.52,117.03c.12.13.42.02.35.19l-.55.54-.55-.98c.45-.61.44-.08.74.24Z"/>
  <rect class="st2" x="104.27" y="135.07" width=".87" height=".87"/>
  <rect class="st2" x="44.28" y="155.65" width=".87" height=".87"/>
  <path class="st2" d="M26.77,77.05v1.09s-.32,0-.32,0l-.55-.76c.23-.34.47-.38.87-.33Z"/>
  <rect class="st2" x="53.92" y="146.45" width=".87" height=".87"/>
  <polygon class="st2" points="104.27 179.73 104.27 180.6 103.4 180.6 103.61 179.83 104.27 179.73"/>
  <polygon class="st2" points="70.55 127.63 70.55 127.95 69.68 128.5 69.67 127.73 70.55 127.63"/>
  <path class="st2" d="M65.3,67.42h-.87c-.11-1.16.98-1.17.87,0Z"/>
  <path class="st2" d="M57.09,96.1c.38-.09,1.05.71.43.87-.78.2-.98-.75-.43-.87Z"/>
  <path class="st2" d="M95.51,183.23c.27.23-.89,1.38-1.09.54-.13-.52.76-.63,1.09-.54Z"/>
  <path class="st2" d="M27.64,70.27v.87c-1.16.11-1.17-.98,0-.87Z"/>
  <path class="st2" d="M58.29,47.05s-.83.27-.87.22v-.87c.39-.19,1.13.32.87.65Z"/>
  <polygon class="st2" points="106.46 206.88 106.46 207.75 106.13 207.75 105.59 207.2 105.59 206.88 106.46 206.88"/>
  <path class="st2" d="M67.71,134.63c-.16-.16.08-.97.54-.87.81.18-.12,1.3-.54.87Z"/>
  <path class="st2" d="M32.02,139.45h-.87s0-.87,0-.87h.32c.26.27.63.45.55.87Z"/>
  <path class="st2" d="M78.87,53.63l.22.55c-.93.99-1.4-.39-.22-.55Z"/>
  <path class="st2" d="M75.15,95.66v.87c-1.21-.12-1.21-.76,0-.87Z"/>
  <path class="st2" d="M36.62,116.46c.3.37-.49.68-.87.65v-.87c.05-.05.85.19.87.22Z"/>
  <rect class="st2" x="106.24" y="202.72" width=".65" height=".87"/>
  <path class="st2" d="M98.69,80.12c.54-.12.73.76.21.87s-.73-.76-.21-.87Z"/>
  <path class="st2" d="M45.16,60.85c-.48.4-1.18-1.25-.11-.87.35.12.26.75.11.87Z"/>
  <path class="st2" d="M16.04,102.45h-.87c-.05-.4-.01-.64.33-.87.27.28.63.46.55.87Z"/>
  <path class="st2" d="M107.34,188.05l-.22-.87c.94-.15,1.27.78.22.87Z"/>
  <path class="st2" d="M47.6,109.41c.06.07.51-.48.4.15l-.87.33.33-.87.14.39Z"/>
  <path class="st2" d="M83.47,126.31c.08.5-.07.92-.65.87v-.87s.65,0,.65,0Z"/>
  <path class="st2" d="M83.25,73.33c-.2-.16-.24-1,.32-.87.69.15.06,1.19-.32.87Z"/>
  <path class="st2" d="M79.53,77.27c.08.5-.07.92-.65.87v-.87s.65,0,.65,0Z"/>
  <path class="st2" d="M72.96,77.71c.05.58-.38.73-.87.65v-.65s.87,0,.87,0Z"/>
  <path class="st2" d="M26.77,106.83v.65s-.87,0-.87,0c-.05-.58.38-.73.87-.65Z"/>
  <path class="st2" d="M53.48,117.33l-.65-.33c-.14-.66,1.21-.81.65.33Z"/>
  <path class="st2" d="M43.63,98.51h-.65s0-.87,0-.87c.58-.05.73.38.65.87Z"/>
  <path class="st2" d="M31.36,117.33c-.57.57-1.18-.87-.33-.87.23,0,.46.74.33.87Z"/>
  <path class="st2" d="M85,64.35c-.25.28-.94-.55-.65-.87.25-.28.94.55.65.87Z"/>
  <path class="st2" d="M93.76,62.38h-.87c-.01-.83.86-.9.87,0Z"/>
  <path class="st2" d="M36.18,99.82v.65c-1.1.08-1.1-.74,0-.65Z"/>
  <path class="st2" d="M96.61,98.72c-.25.28-.94-.55-.65-.87.25-.28.94.55.65.87Z"/>
  <path class="st2" d="M46.69,146.02v.65c-1.1.08-1.1-.74,0-.65Z"/>
  <path class="st2" d="M20.64,75.08v-.87c.83-.01.9.86,0,.87Z"/>
  <path class="st2" d="M66.07,87.13c.43,0,.39,1.01-.22.87s.05-.87.22-.87Z"/>
  <path class="st2" d="M41.44,92.16c.35.35-.31,1-.65.65s.31-1,.65-.65Z"/>
  <path class="st2" d="M73.18,93.25c-.14-.16.1-.87.33-.87.66,0,.04,1.3-.33.87Z"/>
  <path class="st2" d="M44.28,99.16c.14.16-.1.87-.33.87-.66,0-.04-1.3.33-.87Z"/>
  <polygon class="st2" points="32.68 95 32.46 95.88 31.81 95.44 32.68 95"/>
  <path class="st2" d="M82.82,95c-.14-.16.1-.87.33-.87.66,0,.04,1.3-.33.87Z"/>
  <path class="st2" d="M60.04,65.01c.14.16-.1.87-.33.87-.66,0-.04-1.3.33-.87Z"/>
  <path class="st2" d="M42.09,131.56h-.65s0-.65,0-.65c.4-.07.72.24.65.65Z"/>
  <path class="st2" d="M72.52,130.47v.65s-.65,0-.65,0c-.07-.41.26-.73.65-.65Z"/>
  <path class="st2" d="M85.22,78.15c.06.06-.23.4-.33.43-.9.29-.66-.93.33-.43Z"/>
  <path class="st2" d="M37.5,106.39v.65c-.27.3-1.35-.89,0-.65Z"/>
  <path class="st2" d="M64.86,48.15c.06.05,0,.3-.11.44-.81.99-.68-1.14.11-.44Z"/>
  <rect class="st2" x="42.97" y="152.58" width=".44" height=".87"/>
  <path class="st2" d="M55.23,104.2c-.06.06-.4-.23-.43-.33-.29-.9.93-.66.43.33Z"/>
  <path class="st2" d="M59.17,78.8v.65s-.65,0-.65,0c-.07-.4.24-.72.65-.65Z"/>
  <path class="st2" d="M69.24,139.89v.65s-.65,0-.65,0c-.07-.41.26-.73.65-.65Z"/>
  <path class="st2" d="M77.12,57.13h-.65s0-.65,0-.65c.4-.07.72.24.65.65Z"/>
  <path class="st2" d="M36.18,88.66c.06.05,0,.3-.11.44-.81.99-.68-1.14.11-.44Z"/>
  <path class="st2" d="M74.06,72.02v.65c-.27.3-1.35-.89,0-.65Z"/>
  <path class="st2" d="M90.7,193.52h-.65s0-.65,0-.65c.4-.07.72.24.65.65Z"/>
  <path class="st2" d="M109.74,164.4v-.65c.77,0,.83.64,0,.65Z"/>
  <path class="st2" d="M61.14,119.3v-.65c.77,0,.83.64,0,.65Z"/>
  <path class="st2" d="M72.96,72.23l.22.87h-.43c-.11-.54-.55-.99.21-.87Z"/>
  <path class="st2" d="M67.49,54.28c-.23.22-.88-.43-.65-.65s.88.43.65.65Z"/>
  <path class="st2" d="M88.95,93.03v-.65c.77,0,.83.64,0,.65Z"/>
  <path class="st2" d="M74.28,135.29h-.65c0-.77.64-.83.65,0Z"/>
  <path class="st2" d="M54.57,133.32c.22.22-.43.88-.65.65s.43-.88.65-.65Z"/>
  <rect class="st2" x="111.5" y="63.92" width=".65" height=".44"/>
  <polygon class="st2" points="35.31 85.81 34.87 85.81 34.87 84.93 35.09 84.93 35.31 85.81"/>
  <polygon class="st2" points="116.31 151.27 115.98 151.92 115.66 151.27 116.31 151.27"/>
  <rect class="st2" x="82.38" y="146.67" width=".65" height=".44"/>
  <rect class="st2" x="57.2" y="102.01" width=".44" height=".65"/>
  <rect class="st2" x="34.87" y="115.8" width=".44" height=".65"/>
  <polygon class="st2" points="15.16 112.3 14.51 111.97 14.84 111.65 15.16 112.3"/>
  <rect class="st2" x="23.92" y="128.94" width=".44" height=".65"/>
  <rect class="st2" x="39.47" y="130.91" width=".44" height=".65"/>
  <rect class="st2" x="43.85" y="53.85" width=".44" height=".65"/>
  <polygon class="st2" points="41.87 50.12 41.44 50.12 41.44 49.47 41.87 49.8 41.87 50.12"/>
  <polygon class="st2" points="52.82 120.18 52.82 120.51 52.39 120.84 52.38 120.18 52.82 120.18"/>
  <polygon class="st2" points="100.77 195.71 100.77 196.04 100.33 196.37 100.33 195.71 100.77 195.71"/>
  <polygon class="st2" points="89.16 196.59 88.51 196.59 88.51 196.15 88.83 196.15 89.16 196.59"/>
  <polygon class="st2" points="99.89 195.93 99.46 195.93 99.78 195.28 99.89 195.93"/>
  <rect class="st2" x="62.46" y="64.14" width=".44" height=".44"/>
  <rect class="st2" x="65.52" y="121.71" width=".44" height=".44"/>
  <rect class="st2" x="67.27" y="129.16" width=".44" height=".44"/>
  <rect class="st2" x="39.47" y="80.99" width=".44" height=".44"/>
  <rect class="st2" x="71.21" y="106.17" width=".44" height=".44"/>
  <rect class="st2" x="30.05" y="71.14" width=".44" height=".44"/>
  <rect class="st2" x="41.44" y="102.89" width=".44" height=".44"/>
  <rect class="st2" x="106.46" y="65.67" width=".44" height=".44"/>
  <path class="st2" d="M120.47,143.39l.21,1.18c-.93.98-1.08,0-.7-.91.13-.31.05-.33.49-.27Z"/>
  <rect class="st2" x="127.92" y="149.96" width=".87" height=".87"/>
  <path class="st2" d="M123.1,173.6c-.42.42-1.35-.7-.54-.87.46-.1.7.71.54.87Z"/>
</svg>